<svg width="60" height="60" viewBox="0 0 60 60" fill="none" xmlns="http://www.w3.org/2000/svg">
<path fill-rule="evenodd" clip-rule="evenodd" d="M30 10C28.6739 10 27.4021 10.5268 26.4645 11.4645C25.5268 12.4021 25 13.6739 25 15H35C35 13.6739 34.4732 12.4021 33.5355 11.4645C32.5979 10.5268 31.3261 10 30 10ZM23.385 7.5C25.1475 5.945 27.465 5 30 5C32.535 5 34.85 5.945 36.615 7.5H45C46.3261 7.5 47.5979 8.02678 48.5355 8.96447C49.4732 9.90215 50 11.1739 50 12.5V50C50 51.3261 49.4732 52.5979 48.5355 53.5355C47.5979 54.4732 46.3261 55 45 55H15C13.6739 55 12.4021 54.4732 11.4645 53.5355C10.5268 52.5979 10 51.3261 10 50V12.5C10 11.1739 10.5268 9.90215 11.4645 8.96447C12.4021 8.02678 13.6739 7.5 15 7.5H23.385ZM20.315 12.5H15V50H45V12.5H39.685C39.8917 13.3017 39.9967 14.135 40 15V17.5C40 18.163 39.7366 18.7989 39.2678 19.2678C38.7989 19.7366 38.163 20 37.5 20H22.5C21.837 20 21.2011 19.7366 20.7322 19.2678C20.2634 18.7989 20 18.163 20 17.5V15C20.0033 14.135 20.1083 13.3017 20.315 12.5ZM20 27.5C20 26.837 20.2634 26.2011 20.7322 25.7322C21.2011 25.2634 21.837 25 22.5 25H37.5C38.163 25 38.7989 25.2634 39.2678 25.7322C39.7366 26.2011 40 26.837 40 27.5C40 28.163 39.7366 28.7989 39.2678 29.2678C38.7989 29.7366 38.163 30 37.5 30H22.5C21.837 30 21.2011 29.7366 20.7322 29.2678C20.2634 28.7989 20 28.163 20 27.5ZM20 37.5C20 36.837 20.2634 36.2011 20.7322 35.7322C21.2011 35.2634 21.837 35 22.5 35H30C30.663 35 31.2989 35.2634 31.7678 35.7322C32.2366 36.2011 32.5 36.837 32.5 37.5C32.5 38.163 32.2366 38.7989 31.7678 39.2678C31.2989 39.7366 30.663 40 30 40H22.5C21.837 40 21.2011 39.7366 20.7322 39.2678C20.2634 38.7989 20 38.163 20 37.5Z" fill="#F5B400"/>
</svg>
